<?xml version="1.0" encoding="UTF-8"?>
<svg xmlns="http://www.w3.org/2000/svg" xmlns:xlink="http://www.w3.org/1999/xlink" width="30pt" height="30.000001pt" viewBox="0 0 30 30.000001" version="1.2">
<defs>
<clipPath id="clip1">
  <path d="M 2 1.550781 L 28 1.550781 L 28 27.679688 L 2 27.679688 Z M 2 1.550781 "/>
</clipPath>
</defs>
<g id="surface1">
<g clip-path="url(#clip1)" clip-rule="nonzero">
<path style=" stroke:none;fill-rule:nonzero;fill:rgb(11.759949%,83.918762%,37.649536%);fill-opacity:1;" d="M 15.023438 27.832031 C 7.988281 27.886719 1.988281 22.042969 2.078125 14.566406 C 2.164062 7.410156 7.972656 1.550781 15.214844 1.65625 C 22.390625 1.765625 28.09375 7.785156 27.933594 15.011719 C 27.8125 22.097656 22.074219 27.867188 15.023438 27.832031 Z M 13.285156 8.582031 C 12.078125 8.582031 11.007812 8.65625 9.953125 8.777344 C 8.9375 8.902344 7.9375 9.097656 6.953125 9.398438 C 6.410156 9.578125 6.023438 10.128906 6.09375 10.644531 C 6.199219 11.496094 6.902344 11.957031 7.726562 11.707031 C 8.621094 11.441406 9.515625 11.265625 10.445312 11.160156 C 11.742188 11 13.042969 10.964844 14.339844 11.035156 C 15.53125 11.085938 16.726562 11.230469 17.898438 11.476562 C 19.601562 11.832031 21.234375 12.382812 22.742188 13.273438 C 23.214844 13.554688 23.828125 13.429688 24.199219 13.003906 C 24.707031 12.4375 24.582031 11.550781 23.917969 11.140625 C 22.96875 10.554688 21.953125 10.109375 20.882812 9.753906 C 18.355469 8.9375 15.761719 8.601562 13.285156 8.582031 Z M 12.8125 15.136719 C 13.707031 15.136719 14.585938 15.207031 15.460938 15.332031 C 17.480469 15.632812 19.390625 16.238281 21.144531 17.300781 C 21.320312 17.410156 21.515625 17.460938 21.722656 17.445312 C 22.179688 17.410156 22.53125 17.105469 22.636719 16.664062 C 22.742188 16.21875 22.566406 15.792969 22.164062 15.542969 C 21.179688 14.941406 20.128906 14.460938 19.023438 14.089844 C 16.691406 13.308594 14.304688 12.988281 11.847656 13.113281 C 10.445312 13.183594 9.058594 13.414062 7.707031 13.820312 C 7.148438 14 6.847656 14.550781 7.007812 15.101562 C 7.164062 15.632812 7.726562 15.933594 8.269531 15.773438 C 9.761719 15.332031 11.269531 15.136719 12.8125 15.136719 Z M 13.007812 17.375 C 12.636719 17.375 12.285156 17.390625 11.917969 17.410156 C 10.636719 17.480469 9.375 17.675781 8.113281 17.976562 C 7.847656 18.03125 7.65625 18.207031 7.550781 18.457031 C 7.425781 18.757812 7.460938 19.042969 7.671875 19.273438 C 7.902344 19.558594 8.199219 19.609375 8.550781 19.539062 C 10.199219 19.167969 11.847656 18.953125 13.53125 19.007812 C 14.375 19.042969 15.214844 19.132812 16.039062 19.308594 C 17.375 19.59375 18.636719 20.089844 19.8125 20.800781 C 20.214844 21.050781 20.691406 20.925781 20.917969 20.535156 C 21.164062 20.144531 21.039062 19.664062 20.621094 19.398438 C 20.269531 19.183594 19.898438 18.972656 19.515625 18.792969 C 17.460938 17.78125 15.285156 17.375 13.007812 17.375 Z M 13.007812 17.375 "/>
</g>
<path style=" stroke:none;fill-rule:nonzero;fill:rgb(0.779724%,0.779724%,0.779724%);fill-opacity:1;" d="M 13.285156 8.582031 C 15.761719 8.601562 18.355469 8.9375 20.863281 9.789062 C 21.917969 10.144531 22.933594 10.589844 23.898438 11.175781 C 24.566406 11.585938 24.6875 12.453125 24.179688 13.039062 C 23.8125 13.449219 23.214844 13.574219 22.722656 13.308594 C 21.214844 12.417969 19.585938 11.867188 17.882812 11.511719 C 16.707031 11.265625 15.515625 11.140625 14.320312 11.070312 C 13.023438 11 11.726562 11.035156 10.425781 11.195312 C 9.515625 11.300781 8.601562 11.460938 7.707031 11.746094 C 6.902344 11.992188 6.183594 11.53125 6.078125 10.679688 C 6.007812 10.164062 6.394531 9.59375 6.9375 9.4375 C 7.917969 9.132812 8.917969 8.9375 9.9375 8.8125 C 11.007812 8.65625 12.058594 8.582031 13.285156 8.582031 Z M 13.285156 8.582031 "/>
<path style=" stroke:none;fill-rule:nonzero;fill:rgb(0.779724%,0.779724%,0.779724%);fill-opacity:1;" d="M 12.8125 15.136719 C 11.269531 15.136719 9.761719 15.332031 8.269531 15.773438 C 7.726562 15.933594 7.164062 15.652344 7.007812 15.101562 C 6.847656 14.550781 7.148438 14 7.707031 13.820312 C 9.058594 13.414062 10.445312 13.183594 11.847656 13.113281 C 14.304688 12.988281 16.691406 13.308594 19.023438 14.089844 C 20.128906 14.460938 21.164062 14.941406 22.164062 15.542969 C 22.566406 15.792969 22.742188 16.21875 22.636719 16.664062 C 22.53125 17.089844 22.179688 17.390625 21.722656 17.445312 C 21.515625 17.460938 21.320312 17.410156 21.144531 17.300781 C 19.390625 16.238281 17.480469 15.632812 15.460938 15.332031 C 14.585938 15.207031 13.707031 15.136719 12.8125 15.136719 Z M 12.8125 15.136719 "/>
<path style=" stroke:none;fill-rule:nonzero;fill:rgb(0.779724%,0.779724%,0.779724%);fill-opacity:1;" d="M 13.007812 17.375 C 15.285156 17.375 17.460938 17.800781 19.53125 18.792969 C 19.917969 18.972656 20.285156 19.183594 20.636719 19.398438 C 21.058594 19.648438 21.179688 20.125 20.933594 20.535156 C 20.707031 20.925781 20.234375 21.050781 19.828125 20.800781 C 18.65625 20.089844 17.410156 19.59375 16.058594 19.308594 C 15.234375 19.132812 14.390625 19.042969 13.550781 19.007812 C 11.867188 18.953125 10.199219 19.167969 8.566406 19.539062 C 8.21875 19.609375 7.917969 19.558594 7.691406 19.273438 C 7.480469 19.023438 7.445312 18.742188 7.566406 18.457031 C 7.671875 18.207031 7.867188 18.046875 8.128906 17.976562 C 9.375 17.691406 10.636719 17.480469 11.9375 17.410156 C 12.285156 17.375 12.636719 17.355469 13.007812 17.375 Z M 13.007812 17.375 "/>
</g>
</svg>
