<?xml version="1.0" encoding="UTF-8"?>
<svg xmlns="http://www.w3.org/2000/svg" xmlns:xlink="http://www.w3.org/1999/xlink" width="30pt" height="30.000001pt" viewBox="0 0 30 30.000001" version="1.2">
<defs>
<clipPath id="clip1">
  <path d="M 2.136719 1.652344 L 27.539062 1.652344 L 27.539062 27.054688 L 2.136719 27.054688 Z M 2.136719 1.652344 "/>
</clipPath>
</defs>
<g id="surface1">
<g clip-path="url(#clip1)" clip-rule="nonzero">
<path style=" stroke:none;fill-rule:nonzero;fill:rgb(100%,100%,100%);fill-opacity:1;" d="M 8.183594 1.652344 C 4.851562 1.652344 2.136719 4.367188 2.136719 7.699219 L 2.136719 21.007812 C 2.136719 24.339844 4.851562 27.054688 8.183594 27.054688 L 21.488281 27.054688 C 24.824219 27.054688 27.539062 24.339844 27.539062 21.007812 L 27.539062 7.699219 C 27.539062 4.367188 24.824219 1.652344 21.488281 1.652344 Z M 8.183594 2.859375 L 21.488281 2.859375 C 24.167969 2.859375 26.328125 5.019531 26.328125 7.699219 L 26.328125 21.007812 C 26.328125 23.6875 24.167969 25.84375 21.488281 25.84375 L 8.183594 25.84375 C 5.503906 25.84375 3.34375 23.6875 3.34375 21.007812 L 3.34375 7.699219 C 3.34375 5.019531 5.503906 2.859375 8.183594 2.859375 Z M 20.28125 10.125 C 20.113281 10.125 19.96875 10.183594 19.851562 10.300781 C 19.734375 10.421875 19.675781 10.5625 19.675781 10.730469 C 19.675781 10.898438 19.734375 11.039062 19.851562 11.15625 C 19.96875 11.277344 20.113281 11.335938 20.28125 11.335938 C 20.445312 11.335938 20.589844 11.277344 20.707031 11.15625 C 20.824219 11.039062 20.886719 10.898438 20.886719 10.730469 C 20.886719 10.5625 20.824219 10.421875 20.707031 10.300781 C 20.589844 10.183594 20.445312 10.125 20.28125 10.125 Z M 5.308594 11.9375 L 5.308594 16.171875 L 6.21875 16.171875 L 6.21875 13.0625 C 6.515625 12.992188 6.816406 12.921875 7.109375 12.84375 C 7.414062 12.761719 7.699219 12.984375 7.726562 13.242188 L 7.730469 16.171875 L 8.636719 16.171875 L 8.640625 14.660156 L 8.644531 13.90625 L 8.640625 13.527344 L 8.636719 13.335938 C 8.632812 13.246094 8.621094 13.160156 8.601562 13.074219 C 8.910156 13 9.222656 12.925781 9.53125 12.84375 C 9.832031 12.761719 10.121094 12.988281 10.144531 13.242188 L 10.148438 16.171875 L 11.058594 16.171875 L 11.058594 14.660156 L 11.0625 13.90625 L 11.058594 13.527344 L 11.054688 13.335938 C 11.050781 13.242188 11.042969 13.148438 11.015625 13.058594 C 10.929688 12.6875 10.675781 12.371094 10.355469 12.199219 C 10.039062 12.023438 9.632812 12 9.308594 12.113281 C 8.964844 12.230469 8.625 12.355469 8.285156 12.484375 C 8.183594 12.371094 8.070312 12.269531 7.9375 12.199219 C 7.617188 12.023438 7.210938 12 6.890625 12.113281 C 6.664062 12.191406 6.441406 12.277344 6.21875 12.355469 L 6.21875 11.9375 Z M 12.871094 11.9375 L 11.964844 11.941406 L 11.964844 13.402344 C 11.960938 13.902344 11.957031 14.359375 11.972656 14.890625 C 11.996094 15.261719 12.199219 15.601562 12.46875 15.816406 C 12.734375 16.035156 13.066406 16.148438 13.394531 16.167969 C 13.710938 16.195312 14.082031 16.101562 14.3125 15.960938 C 14.335938 15.949219 14.359375 15.933594 14.382812 15.921875 L 14.382812 16.0625 L 15.289062 16.0625 L 15.289062 11.941406 L 14.382812 11.941406 L 14.382812 15.179688 C 14.253906 15.222656 14.125 15.265625 14 15.3125 C 13.789062 15.40625 13.648438 15.421875 13.464844 15.398438 C 13.117188 15.355469 12.851562 15.082031 12.875 14.84375 C 12.878906 14.402344 12.882812 13.882812 12.875 13.402344 Z M 19.828125 11.9375 L 19.828125 16.171875 L 20.734375 16.171875 L 20.734375 11.9375 Z M 23.441406 11.941406 C 23.226562 11.953125 23.011719 12.003906 22.8125 12.085938 C 22.015625 12.4375 21.621094 13.257812 21.640625 13.992188 C 21.648438 14.335938 21.703125 14.695312 21.851562 15.050781 C 22.011719 15.394531 22.289062 15.738281 22.667969 15.933594 C 23.042969 16.136719 23.46875 16.195312 23.847656 16.167969 C 24.078125 16.144531 24.300781 16.105469 24.515625 16.035156 L 24.515625 15.417969 C 23.976562 15.5 23.445312 15.5 23.105469 15.269531 C 22.722656 15.035156 22.542969 14.527344 22.546875 13.980469 C 22.535156 13.484375 22.777344 13.011719 23.191406 12.785156 C 23.578125 12.578125 24.078125 12.660156 24.515625 12.960938 L 24.515625 12.214844 C 24.375 12.132812 24.230469 12.066406 24.066406 12.015625 C 23.871094 11.953125 23.65625 11.929688 23.441406 11.941406 Z M 17.683594 11.949219 C 17.523438 11.964844 17.363281 11.996094 17.207031 12.042969 C 16.671875 12.210938 16.292969 12.570312 16.238281 12.941406 C 16.140625 13.628906 16.644531 14.03125 16.894531 14.144531 C 17.140625 14.277344 17.363281 14.335938 17.570312 14.394531 C 17.988281 14.496094 18.253906 14.609375 18.347656 14.757812 C 18.402344 14.839844 18.421875 14.902344 18.421875 15.007812 C 18.421875 15.117188 18.398438 15.214844 18.285156 15.285156 C 18.046875 15.414062 17.644531 15.460938 17.273438 15.421875 C 16.90625 15.386719 16.433594 15.222656 16.046875 15.0625 L 16.046875 15.714844 C 16.402344 15.9375 16.785156 16.054688 17.175781 16.125 C 17.644531 16.1875 18.121094 16.230469 18.660156 15.996094 C 18.917969 15.890625 19.234375 15.652344 19.234375 15.015625 C 19.234375 14.347656 18.75 14.054688 18.507812 13.9375 C 18.265625 13.8125 18.042969 13.753906 17.835938 13.691406 C 17.636719 13.625 17.109375 13.539062 17.109375 13.085938 C 17.109375 12.894531 17.308594 12.789062 17.460938 12.742188 C 17.96875 12.574219 18.570312 12.703125 19.070312 12.960938 L 19.070312 12.214844 C 18.648438 12.011719 18.164062 11.90625 17.683594 11.949219 Z M 23.667969 17.988281 C 22.996094 17.988281 22.199219 18.15625 21.613281 18.582031 C 21.445312 18.707031 21.441406 18.878906 21.652344 18.878906 C 22.324219 18.792969 23.835938 18.582031 24.132812 18.960938 C 24.382812 19.300781 23.835938 20.742188 23.585938 21.417969 C 23.5 21.628906 23.671875 21.671875 23.839844 21.542969 C 24.972656 20.570312 25.265625 18.578125 25.054688 18.324219 C 24.929688 18.113281 24.339844 17.988281 23.667969 17.988281 Z M 5.136719 18.449219 C 5.101562 18.453125 5.070312 18.472656 5.046875 18.5 C 4.996094 18.566406 5.007812 18.664062 5.070312 18.714844 C 6.316406 19.722656 7.726562 20.492188 9.21875 21.09375 C 10.714844 21.671875 12.300781 22.070312 13.925781 22.179688 C 15.554688 22.289062 17.1875 22.136719 18.757812 21.734375 C 20.328125 21.328125 21.824219 20.703125 23.164062 19.753906 C 23.28125 19.671875 23.324219 19.515625 23.265625 19.382812 C 23.195312 19.230469 23.015625 19.164062 22.863281 19.234375 L 22.839844 19.246094 C 21.46875 19.875 19.980469 20.320312 18.503906 20.625 C 17.019531 20.933594 15.5 21.050781 13.996094 20.996094 C 12.488281 20.933594 10.992188 20.636719 9.523438 20.21875 C 8.0625 19.769531 6.605469 19.207031 5.246094 18.46875 L 5.238281 18.464844 C 5.207031 18.445312 5.171875 18.441406 5.136719 18.449219 Z M 5.136719 18.449219 "/>
</g>
</g>
</svg>
