<?xml version="1.0" encoding="UTF-8"?>
<svg xmlns="http://www.w3.org/2000/svg" xmlns:xlink="http://www.w3.org/1999/xlink" width="30pt" height="30.000001pt" viewBox="0 0 30 30.000001" version="1.2">
<defs>
<clipPath id="clip1">
  <path d="M 1.535156 1.050781 L 28.320312 1.050781 L 28.320312 27.835938 L 1.535156 27.835938 Z M 1.535156 1.050781 "/>
</clipPath>
</defs>
<g id="surface1">
<g clip-path="url(#clip1)" clip-rule="nonzero">
<path style=" stroke:none;fill-rule:nonzero;fill:rgb(10.198975%,27.839661%,53.729248%);fill-opacity:1;" d="M 28.320312 23.761719 C 28.320312 26.011719 26.5 27.832031 24.25 27.832031 L 5.605469 27.832031 C 3.359375 27.832031 1.535156 26.011719 1.535156 23.761719 L 1.535156 5.117188 C 1.535156 2.871094 3.359375 1.046875 5.605469 1.046875 L 24.25 1.046875 C 26.5 1.046875 28.320312 2.871094 28.320312 5.117188 Z M 28.320312 23.761719 "/>
</g>
<path style=" stroke:none;fill-rule:nonzero;fill:rgb(100%,100%,100%);fill-opacity:1;" d="M 19.285156 16.523438 L 19.714844 13.164062 L 16.390625 13.164062 L 16.390625 11.019531 C 16.390625 10.046875 16.660156 9.382812 18.054688 9.382812 L 19.832031 9.382812 L 19.832031 6.378906 C 19.527344 6.339844 18.472656 6.246094 17.242188 6.246094 C 14.679688 6.246094 12.921875 7.8125 12.921875 10.6875 L 12.921875 13.164062 L 10.023438 13.164062 L 10.023438 16.523438 L 12.921875 16.523438 L 12.921875 25.140625 L 16.390625 25.140625 L 16.390625 16.523438 Z M 19.285156 16.523438 "/>
</g>
</svg>
