<?xml version="1.0" encoding="UTF-8"?>
<svg xmlns="http://www.w3.org/2000/svg" xmlns:xlink="http://www.w3.org/1999/xlink" width="30pt" height="30.000001pt" viewBox="0 0 30 30.000001" version="1.2">
<defs>
<clipPath id="clip1">
  <path d="M 1.679688 1.199219 L 28.535156 1.199219 L 28.535156 28.050781 L 1.679688 28.050781 Z M 1.679688 1.199219 "/>
</clipPath>
</defs>
<g id="surface1">
<g clip-path="url(#clip1)" clip-rule="nonzero">
<path style=" stroke:none;fill-rule:nonzero;fill:rgb(92.939758%,11.369324%,14.118958%);fill-opacity:1;" d="M 5.742188 1.199219 L 24.703125 1.199219 C 24.96875 1.199219 25.234375 1.222656 25.496094 1.277344 C 25.757812 1.328125 26.011719 1.40625 26.257812 1.507812 C 26.503906 1.609375 26.738281 1.734375 26.960938 1.882812 C 27.179688 2.03125 27.386719 2.199219 27.574219 2.386719 C 27.765625 2.574219 27.933594 2.78125 28.082031 3.003906 C 28.230469 3.226562 28.355469 3.460938 28.457031 3.707031 C 28.558594 3.953125 28.636719 4.207031 28.6875 4.46875 C 28.738281 4.730469 28.765625 4.992188 28.765625 5.261719 L 28.765625 24.21875 C 28.765625 24.484375 28.738281 24.75 28.6875 25.011719 C 28.636719 25.273438 28.558594 25.527344 28.457031 25.773438 C 28.355469 26.019531 28.230469 26.253906 28.082031 26.476562 C 27.933594 26.699219 27.765625 26.902344 27.574219 27.089844 C 27.386719 27.28125 27.179688 27.449219 26.960938 27.597656 C 26.738281 27.746094 26.503906 27.871094 26.257812 27.972656 C 26.011719 28.074219 25.757812 28.152344 25.496094 28.203125 C 25.234375 28.253906 24.96875 28.28125 24.703125 28.28125 L 5.742188 28.28125 C 5.476562 28.28125 5.214844 28.253906 4.953125 28.203125 C 4.691406 28.152344 4.4375 28.074219 4.1875 27.972656 C 3.941406 27.871094 3.707031 27.746094 3.488281 27.597656 C 3.265625 27.449219 3.058594 27.28125 2.871094 27.089844 C 2.683594 26.902344 2.515625 26.699219 2.367188 26.476562 C 2.21875 26.253906 2.09375 26.019531 1.992188 25.773438 C 1.886719 25.527344 1.8125 25.273438 1.757812 25.011719 C 1.707031 24.75 1.679688 24.484375 1.679688 24.21875 L 1.679688 5.261719 C 1.679688 4.992188 1.707031 4.730469 1.757812 4.46875 C 1.8125 4.207031 1.886719 3.953125 1.992188 3.707031 C 2.09375 3.460938 2.21875 3.226562 2.367188 3.003906 C 2.515625 2.78125 2.683594 2.574219 2.871094 2.386719 C 3.058594 2.199219 3.265625 2.03125 3.488281 1.882812 C 3.707031 1.734375 3.941406 1.609375 4.1875 1.507812 C 4.4375 1.40625 4.691406 1.328125 4.953125 1.277344 C 5.214844 1.222656 5.476562 1.199219 5.742188 1.199219 Z M 5.742188 1.199219 "/>
</g>
<path style=" stroke:none;fill-rule:nonzero;fill:rgb(100%,100%,100%);fill-opacity:1;" d="M 24.269531 10.136719 C 24.058594 9.34375 23.371094 8.710938 22.574219 8.496094 C 20.777344 8.019531 9.933594 7.96875 7.871094 8.496094 C 7.078125 8.710938 6.390625 9.34375 6.179688 10.136719 C 5.703125 12.148438 5.648438 17.277344 6.179688 19.339844 C 6.390625 20.136719 7.078125 20.769531 7.871094 20.980469 C 9.773438 21.511719 20.617188 21.511719 22.574219 20.980469 C 23.371094 20.769531 24.058594 20.136719 24.269531 19.339844 C 24.746094 17.4375 24.746094 12.09375 24.269531 10.136719 "/>
<path style=" stroke:none;fill-rule:nonzero;fill:rgb(92.939758%,11.369324%,14.118958%);fill-opacity:1;" d="M 13.320312 11.9375 L 13.320312 17.542969 L 18.238281 14.738281 "/>
</g>
</svg>
