<?xml version="1.0" encoding="UTF-8"?>
<svg xmlns="http://www.w3.org/2000/svg" xmlns:xlink="http://www.w3.org/1999/xlink" width="30pt" height="30.000001pt" viewBox="0 0 30 30.000001" version="1.2">
<defs>
<clipPath id="clip1">
  <path d="M 1.828125 1.054688 L 28.683594 1.054688 L 28.683594 27.910156 L 1.828125 27.910156 Z M 1.828125 1.054688 "/>
</clipPath>
</defs>
<g id="surface1">
<g clip-path="url(#clip1)" clip-rule="nonzero">
<path style=" stroke:none;fill-rule:nonzero;fill:rgb(11.369324%,60.778809%,94.119263%);fill-opacity:1;" d="M 25.527344 28.136719 L 5.214844 28.136719 C 3.34375 28.136719 1.828125 26.621094 1.828125 24.75 L 1.828125 4.4375 C 1.828125 2.570312 3.34375 1.054688 5.214844 1.054688 L 25.527344 1.054688 C 27.394531 1.054688 28.910156 2.570312 28.910156 4.4375 L 28.910156 24.75 C 28.910156 26.621094 27.394531 28.136719 25.527344 28.136719 Z M 25.527344 28.136719 "/>
</g>
<path style=" stroke:none;fill-rule:nonzero;fill:rgb(100%,100%,100%);fill-opacity:1;" d="M 12.226562 21.472656 C 18.613281 21.472656 22.105469 16.179688 22.105469 11.597656 C 22.105469 11.445312 22.105469 11.296875 22.101562 11.148438 C 22.777344 10.660156 23.367188 10.046875 23.832031 9.347656 C 23.210938 9.625 22.539062 9.808594 21.835938 9.894531 C 22.554688 9.46875 23.101562 8.785156 23.367188 7.972656 C 22.695312 8.371094 21.949219 8.65625 21.160156 8.8125 C 20.523438 8.136719 19.621094 7.714844 18.625 7.714844 C 16.710938 7.714844 15.152344 9.273438 15.152344 11.191406 C 15.152344 11.460938 15.1875 11.722656 15.242188 11.980469 C 12.355469 11.839844 9.796875 10.453125 8.085938 8.351562 C 7.785156 8.867188 7.617188 9.464844 7.617188 10.097656 C 7.617188 11.304688 8.234375 12.367188 9.160156 12.992188 C 8.59375 12.96875 8.058594 12.816406 7.589844 12.558594 C 7.589844 12.570312 7.589844 12.585938 7.589844 12.605469 C 7.589844 14.285156 8.789062 15.691406 10.371094 16.011719 C 10.082031 16.089844 9.777344 16.132812 9.457031 16.132812 C 9.234375 16.132812 9.019531 16.113281 8.808594 16.070312 C 9.25 17.453125 10.535156 18.453125 12.050781 18.480469 C 10.859375 19.417969 9.363281 19.972656 7.738281 19.972656 C 7.460938 19.972656 7.183594 19.957031 6.914062 19.925781 C 8.441406 20.898438 10.269531 21.472656 12.226562 21.472656 "/>
</g>
</svg>
