<?xml version="1.0" encoding="UTF-8"?>
<svg xmlns="http://www.w3.org/2000/svg" xmlns:xlink="http://www.w3.org/1999/xlink" width="30pt" height="30.000001pt" viewBox="0 0 30 30.000001" version="1.2">
<defs>
<clipPath id="clip1">
  <path d="M 2.40625 1.851562 L 27.808594 1.851562 L 27.808594 27.253906 L 2.40625 27.253906 Z M 2.40625 1.851562 "/>
</clipPath>
</defs>
<g id="surface1">
<g clip-path="url(#clip1)" clip-rule="nonzero">
<path style=" stroke:none;fill-rule:nonzero;fill:rgb(96.078491%,77.249146%,9.408569%);fill-opacity:1;" d="M 2.40625 25.136719 C 2.40625 26.308594 3.355469 27.253906 4.523438 27.253906 L 25.695312 27.253906 C 26.863281 27.253906 27.808594 26.308594 27.808594 25.136719 L 27.808594 3.96875 C 27.808594 2.796875 26.863281 1.851562 25.695312 1.851562 L 4.523438 1.851562 C 3.355469 1.851562 2.40625 2.796875 2.40625 3.96875 Z M 2.40625 25.136719 "/>
</g>
<path style=" stroke:none;fill-rule:nonzero;fill:rgb(0%,0%,0%);fill-opacity:1;" d="M 22.835938 12.765625 C 22.332031 12.765625 21.992188 12.917969 21.652344 13.285156 L 21.652344 10.921875 L 19.855469 10.921875 L 19.855469 18.167969 L 21.546875 18.167969 L 21.652344 17.710938 C 21.976562 18.097656 22.328125 18.265625 22.839844 18.265625 C 23.960938 18.265625 24.097656 17.402344 24.097656 16.511719 L 24.097656 14.472656 C 24.097656 13.492188 24.050781 12.765625 22.835938 12.765625 Z M 21.929688 17.222656 C 21.839844 17.222656 21.757812 17.175781 21.714844 17.085938 C 21.589844 16.796875 21.652344 14.585938 21.652344 14.550781 C 21.652344 14.335938 21.589844 13.832031 21.929688 13.832031 C 22.34375 13.832031 22.28125 14.246094 22.28125 14.550781 L 22.28125 16.40625 C 22.28125 16.710938 22.375 17.222656 21.929688 17.222656 Z M 21.929688 17.222656 "/>
<path style=" stroke:none;fill-rule:nonzero;fill:rgb(0%,0%,0%);fill-opacity:1;" d="M 19.144531 12.105469 C 18.902344 10.832031 17.367188 10.921875 16.367188 10.921875 L 14.972656 10.921875 L 14.972656 18.167969 C 19.855469 18.175781 19.226562 18.507812 19.226562 13.492188 C 19.226562 13.03125 19.242188 12.539062 19.144531 12.105469 Z M 16.851562 16.910156 L 16.851562 12.164062 C 17.523438 12.164062 17.433594 12.523438 17.433594 13.074219 L 17.433594 15.867188 C 17.433594 16.417969 17.542969 16.929688 16.851562 16.910156 Z M 16.851562 16.910156 "/>
<path style=" stroke:none;fill-rule:nonzero;fill:rgb(0%,0%,0%);fill-opacity:1;" d="M 8.539062 10.921875 L 10.964844 10.921875 C 11.152344 12.046875 11.304688 13.183594 11.457031 14.320312 L 11.890625 10.921875 L 14.328125 10.921875 L 14.328125 18.171875 L 12.699219 18.171875 L 12.699219 13.273438 L 12.042969 18.171875 L 10.875 18.171875 L 10.183594 13.378906 L 10.183594 18.171875 L 8.539062 18.171875 Z M 8.539062 10.921875 "/>
<path style=" stroke:none;fill-rule:nonzero;fill:rgb(0%,0%,0%);fill-opacity:1;" d="M 6.035156 10.921875 L 7.90625 10.921875 L 7.90625 18.171875 L 6.035156 18.171875 Z M 6.035156 10.921875 "/>
</g>
</svg>
