<?xml version="1.0" encoding="UTF-8"?>
<svg xmlns="http://www.w3.org/2000/svg" xmlns:xlink="http://www.w3.org/1999/xlink" width="30pt" height="30.000001pt" viewBox="0 0 30 30.000001" version="1.2">
<defs>
<clipPath id="clip1">
  <path d="M 1.953125 1.46875 L 28.082031 1.46875 L 28.082031 27.597656 L 1.953125 27.597656 Z M 1.953125 1.46875 "/>
</clipPath>
</defs>
<g id="surface1">
<g clip-path="url(#clip1)" clip-rule="nonzero">
<path style=" stroke:none;fill-rule:nonzero;fill:rgb(100%,98.81897%,0%);fill-opacity:1;" d="M 23.957031 1.46875 C 26.261719 1.46875 28.128906 3.335938 28.128906 5.640625 L 28.128906 23.472656 C 28.128906 25.777344 26.261719 27.644531 23.957031 27.644531 L 6.125 27.644531 C 3.820312 27.644531 1.953125 25.777344 1.953125 23.472656 L 1.953125 5.640625 C 1.953125 3.335938 3.820312 1.46875 6.125 1.46875 Z M 23.957031 1.46875 "/>
</g>
<path style=" stroke:none;fill-rule:nonzero;fill:rgb(100%,100%,100%);fill-opacity:1;" d="M 15.144531 23.5625 C 15.09375 23.5625 15.039062 23.5625 15.007812 23.5625 C 14.972656 23.5625 14.9375 23.5625 14.917969 23.5625 C 13.785156 23.5625 13.050781 23.039062 12.355469 22.550781 C 11.863281 22.199219 11.410156 21.886719 10.871094 21.796875 C 10.609375 21.746094 10.347656 21.730469 10.085938 21.730469 C 9.632812 21.730469 9.265625 21.796875 9.003906 21.851562 C 8.847656 21.886719 8.707031 21.902344 8.601562 21.902344 C 8.496094 21.902344 8.375 21.886719 8.324219 21.710938 C 8.269531 21.554688 8.253906 21.414062 8.21875 21.273438 C 8.128906 20.910156 8.078125 20.683594 7.921875 20.664062 C 6.125 20.386719 5.601562 20 5.496094 19.738281 C 5.476562 19.703125 5.476562 19.667969 5.460938 19.617188 C 5.460938 19.511719 5.53125 19.425781 5.636719 19.40625 C 8.410156 18.953125 9.648438 16.128906 9.703125 16.003906 C 9.703125 16.003906 9.703125 16.003906 9.703125 15.988281 C 9.875 15.640625 9.910156 15.34375 9.804688 15.097656 C 9.613281 14.644531 9.003906 14.453125 8.585938 14.332031 C 8.480469 14.296875 8.390625 14.261719 8.304688 14.242188 C 7.484375 13.910156 7.414062 13.578125 7.449219 13.421875 C 7.503906 13.125 7.886719 12.933594 8.199219 12.933594 C 8.289062 12.933594 8.359375 12.953125 8.425781 12.988281 C 8.792969 13.160156 9.125 13.25 9.421875 13.25 C 9.824219 13.25 9.996094 13.074219 10.015625 13.054688 C 9.996094 12.863281 9.996094 12.671875 9.980469 12.464844 C 9.894531 11.15625 9.789062 9.53125 10.207031 8.589844 C 11.445312 5.796875 14.082031 5.585938 14.867188 5.585938 C 14.882812 5.585938 15.214844 5.585938 15.214844 5.585938 L 15.269531 5.585938 C 16.054688 5.585938 18.6875 5.796875 19.925781 8.589844 C 20.34375 9.515625 20.242188 11.15625 20.152344 12.464844 L 20.152344 12.515625 C 20.136719 12.691406 20.136719 12.882812 20.117188 13.039062 C 20.136719 13.054688 20.292969 13.214844 20.660156 13.230469 C 20.9375 13.214844 21.253906 13.125 21.585938 12.96875 C 21.6875 12.917969 21.792969 12.917969 21.882812 12.917969 C 22.003906 12.917969 22.109375 12.933594 22.210938 12.988281 C 22.492188 13.089844 22.667969 13.28125 22.683594 13.476562 C 22.683594 13.667969 22.542969 13.964844 21.828125 14.242188 C 21.757812 14.277344 21.652344 14.296875 21.566406 14.332031 C 21.148438 14.453125 20.539062 14.660156 20.34375 15.097656 C 20.242188 15.34375 20.277344 15.640625 20.449219 15.988281 C 20.449219 15.988281 20.449219 15.988281 20.449219 16.003906 C 20.503906 16.128906 21.742188 18.953125 24.515625 19.40625 C 24.621094 19.425781 24.691406 19.511719 24.691406 19.617188 C 24.691406 19.652344 24.671875 19.6875 24.65625 19.738281 C 24.535156 20 24.027344 20.386719 22.230469 20.664062 C 22.089844 20.683594 22.019531 20.875 21.933594 21.273438 C 21.898438 21.414062 21.863281 21.570312 21.828125 21.710938 C 21.792969 21.851562 21.707031 21.902344 21.566406 21.902344 L 21.550781 21.902344 C 21.460938 21.902344 21.324219 21.886719 21.148438 21.851562 C 20.851562 21.796875 20.503906 21.730469 20.066406 21.730469 C 19.804688 21.730469 19.542969 21.746094 19.28125 21.796875 C 18.738281 21.886719 18.285156 22.21875 17.796875 22.550781 C 16.996094 23.039062 16.28125 23.5625 15.144531 23.5625 Z M 15.144531 23.5625 "/>
<path style=" stroke:none;fill-rule:nonzero;fill:rgb(1.179504%,1.179504%,1.179504%);fill-opacity:1;" d="M 15.199219 5.761719 C 15.929688 5.761719 18.476562 5.953125 19.664062 8.640625 C 20.066406 9.53125 19.960938 11.121094 19.875 12.410156 C 19.855469 12.621094 19.855469 12.8125 19.839844 13.003906 L 19.839844 13.089844 L 19.890625 13.144531 C 19.910156 13.160156 20.117188 13.386719 20.574219 13.40625 C 20.867188 13.386719 21.21875 13.300781 21.585938 13.125 C 21.636719 13.109375 21.707031 13.089844 21.792969 13.089844 C 21.882812 13.089844 21.96875 13.109375 22.054688 13.144531 L 22.074219 13.144531 C 22.265625 13.214844 22.40625 13.335938 22.40625 13.457031 C 22.40625 13.527344 22.351562 13.753906 21.671875 14.035156 C 21.601562 14.070312 21.515625 14.085938 21.410156 14.121094 C 20.957031 14.261719 20.292969 14.46875 20.066406 15.011719 C 19.945312 15.308594 19.980469 15.671875 20.171875 16.058594 C 20.257812 16.25 21.53125 19.113281 24.394531 19.582031 C 24.394531 19.601562 24.394531 19.617188 24.375 19.636719 C 24.324219 19.757812 24.027344 20.140625 22.109375 20.4375 C 21.8125 20.488281 21.742188 20.820312 21.652344 21.207031 C 21.621094 21.34375 21.585938 21.484375 21.550781 21.640625 C 21.53125 21.695312 21.53125 21.695312 21.480469 21.695312 C 21.480469 21.695312 21.460938 21.695312 21.460938 21.695312 C 21.375 21.695312 21.253906 21.675781 21.097656 21.640625 C 20.816406 21.589844 20.449219 21.519531 19.980469 21.519531 C 19.71875 21.519531 19.4375 21.535156 19.160156 21.589844 C 18.566406 21.695312 18.09375 22.027344 17.589844 22.375 C 16.90625 22.863281 16.210938 23.351562 15.128906 23.351562 C 15.074219 23.351562 15.039062 23.351562 14.988281 23.351562 L 14.953125 23.351562 C 14.917969 23.351562 14.902344 23.351562 14.867188 23.351562 C 13.800781 23.351562 13.085938 22.863281 12.40625 22.375 C 11.898438 22.027344 11.429688 21.675781 10.835938 21.589844 C 10.554688 21.535156 10.292969 21.519531 10.015625 21.519531 C 9.542969 21.519531 9.160156 21.589844 8.898438 21.640625 C 8.742188 21.675781 8.621094 21.695312 8.53125 21.695312 C 8.460938 21.695312 8.460938 21.695312 8.445312 21.640625 C 8.410156 21.503906 8.375 21.34375 8.339844 21.207031 C 8.253906 20.820312 8.183594 20.472656 7.886719 20.4375 C 5.96875 20.140625 5.652344 19.738281 5.617188 19.636719 C 5.617188 19.617188 5.601562 19.601562 5.601562 19.582031 C 8.460938 19.113281 9.734375 16.25 9.824219 16.058594 C 10.015625 15.65625 10.050781 15.308594 9.929688 15.011719 C 9.703125 14.46875 9.019531 14.261719 8.585938 14.121094 C 8.480469 14.085938 8.390625 14.070312 8.324219 14.035156 C 7.746094 13.808594 7.574219 13.578125 7.589844 13.441406 C 7.625 13.28125 7.902344 13.109375 8.148438 13.109375 C 8.199219 13.109375 8.253906 13.125 8.289062 13.125 C 8.6875 13.316406 9.039062 13.40625 9.351562 13.40625 C 9.859375 13.40625 10.066406 13.179688 10.101562 13.144531 L 10.15625 13.089844 L 10.15625 13.003906 C 10.136719 12.8125 10.136719 12.621094 10.121094 12.410156 C 10.03125 11.121094 9.945312 9.53125 10.328125 8.640625 C 11.550781 5.972656 14.0625 5.761719 14.8125 5.761719 C 14.832031 5.761719 15.164062 5.761719 15.164062 5.761719 C 15.179688 5.761719 15.199219 5.761719 15.199219 5.761719 M 15.199219 5.359375 C 15.179688 5.359375 15.164062 5.359375 15.144531 5.359375 C 15.144531 5.359375 14.832031 5.359375 14.8125 5.359375 C 14.011719 5.359375 11.273438 5.585938 9.980469 8.484375 C 9.542969 9.460938 9.648438 11.121094 9.734375 12.445312 C 9.753906 12.601562 9.753906 12.757812 9.769531 12.917969 C 9.703125 12.953125 9.578125 13.003906 9.386719 13.003906 C 9.125 13.003906 8.828125 12.917969 8.480469 12.757812 C 8.390625 12.726562 8.289062 12.691406 8.164062 12.691406 C 7.765625 12.691406 7.292969 12.953125 7.207031 13.351562 C 7.152344 13.632812 7.277344 14.050781 8.183594 14.398438 C 8.269531 14.433594 8.359375 14.46875 8.460938 14.503906 C 8.828125 14.625 9.40625 14.800781 9.5625 15.167969 C 9.648438 15.359375 9.613281 15.605469 9.472656 15.882812 C 9.472656 15.882812 9.472656 15.902344 9.457031 15.902344 C 9.40625 16.023438 8.199219 18.746094 5.546875 19.179688 C 5.339844 19.214844 5.199219 19.390625 5.214844 19.601562 C 5.214844 19.667969 5.234375 19.722656 5.25 19.773438 C 5.445312 20.246094 6.296875 20.578125 7.835938 20.820312 C 7.886719 20.890625 7.9375 21.136719 7.972656 21.292969 C 8.007812 21.433594 8.042969 21.589844 8.078125 21.746094 C 8.128906 21.902344 8.253906 22.09375 8.550781 22.09375 C 8.671875 22.09375 8.828125 22.058594 8.984375 22.027344 C 9.246094 21.972656 9.597656 21.902344 10.03125 21.902344 C 10.277344 21.902344 10.519531 21.921875 10.78125 21.972656 C 11.273438 22.058594 11.691406 22.355469 12.179688 22.6875 C 12.878906 23.175781 13.664062 23.734375 14.867188 23.734375 C 14.902344 23.734375 14.9375 23.734375 14.972656 23.734375 C 15.007812 23.734375 15.058594 23.734375 15.109375 23.734375 C 16.316406 23.734375 17.101562 23.175781 17.796875 22.6875 C 18.285156 22.339844 18.707031 22.042969 19.195312 21.957031 C 19.457031 21.921875 19.699219 21.886719 19.945312 21.886719 C 20.363281 21.886719 20.695312 21.9375 20.992188 21.992188 C 21.183594 22.027344 21.324219 22.042969 21.425781 22.042969 L 21.460938 22.042969 C 21.6875 22.042969 21.847656 21.921875 21.917969 21.710938 C 21.96875 21.554688 22.003906 21.414062 22.019531 21.257812 C 22.054688 21.101562 22.109375 20.855469 22.160156 20.804688 C 23.695312 20.558594 24.535156 20.226562 24.742188 19.757812 C 24.761719 19.703125 24.777344 19.636719 24.796875 19.566406 C 24.8125 19.355469 24.65625 19.179688 24.464844 19.144531 C 21.792969 18.710938 20.605469 15.96875 20.554688 15.867188 C 20.554688 15.867188 20.554688 15.847656 20.539062 15.847656 C 20.398438 15.550781 20.363281 15.324219 20.449219 15.132812 C 20.605469 14.765625 21.164062 14.59375 21.550781 14.46875 C 21.652344 14.433594 21.757812 14.398438 21.828125 14.363281 C 22.492188 14.101562 22.824219 13.789062 22.824219 13.40625 C 22.824219 13.109375 22.597656 12.847656 22.230469 12.726562 C 22.109375 12.671875 21.96875 12.65625 21.828125 12.65625 C 21.722656 12.65625 21.585938 12.671875 21.460938 12.726562 C 21.148438 12.863281 20.867188 12.953125 20.625 12.96875 C 20.46875 12.96875 20.363281 12.917969 20.292969 12.882812 C 20.292969 12.742188 20.3125 12.601562 20.3125 12.464844 L 20.3125 12.410156 C 20.398438 11.085938 20.503906 9.425781 20.066406 8.449219 C 18.757812 5.585938 16.019531 5.359375 15.199219 5.359375 Z M 15.199219 5.359375 "/>
</g>
</svg>
